<svg width="298" height="93" viewBox="0 0 298 93" fill="none" xmlns="http://www.w3.org/2000/svg">
<g style="mix-blend-mode:multiply">
<path d="M296.5 46.5C296.5 52.22 292.782 57.946 285.4 63.3929C278.048 68.8179 267.312 73.7666 253.912 77.9486C227.129 86.307 190.037 91.5 149 91.5C107.963 91.5 70.8709 86.307 44.088 77.9486C30.6875 73.7666 19.9523 68.8179 12.5997 63.3929C5.21753 57.946 1.5 52.22 1.5 46.5C1.5 40.78 5.21753 35.054 12.5997 29.6071C19.9523 24.1821 30.6875 19.2334 44.088 15.0514C70.8709 6.69299 107.963 1.5 149 1.5C190.037 1.5 227.129 6.69299 253.912 15.0514C267.312 19.2334 278.048 24.1821 285.4 29.6071C292.782 35.054 296.5 40.78 296.5 46.5Z" stroke="#63FF8F" stroke-width="3"/>
</g>
</svg>
