<svg width="216" height="64" viewBox="0 0 216 64" fill="none" xmlns="http://www.w3.org/2000/svg">
<g style="mix-blend-mode:multiply">
<path d="M214.5 32C214.5 35.6825 211.973 39.4996 206.652 43.2273C201.373 46.9254 193.637 50.3166 183.941 53.1892C164.571 58.9287 137.721 62.5 108 62.5C78.2792 62.5 51.4294 58.9287 32.0586 53.1892C22.3635 50.3166 14.6269 46.9254 9.3478 43.2273C4.02656 39.4996 1.5 35.6825 1.5 32C1.5 28.3175 4.02656 24.5004 9.3478 20.7727C14.6269 17.0746 22.3635 13.6834 32.0586 10.8108C51.4294 5.07128 78.2792 1.5 108 1.5C137.721 1.5 164.571 5.07128 183.941 10.8108C193.637 13.6834 201.373 17.0746 206.652 20.7727C211.973 24.5004 214.5 28.3175 214.5 32Z" stroke="#63FF8F" stroke-width="3"/>
</g>
</svg>
