<svg width="134" height="44" viewBox="0 0 134 44" fill="none" xmlns="http://www.w3.org/2000/svg">
<g style="mix-blend-mode:multiply">
<path d="M132.5 22C132.5 24.3711 131.037 26.8771 127.815 29.3785C124.612 31.8648 119.885 34.1688 113.908 36.1312C101.972 40.0506 85.3871 42.5 67 42.5C48.6129 42.5 32.0282 40.0506 20.0918 36.1312C14.1155 34.1688 9.38759 31.8648 6.18503 29.3785C2.96295 26.8771 1.5 24.3711 1.5 22C1.5 19.6289 2.96295 17.1229 6.18503 14.6215C9.38759 12.1352 14.1155 9.83117 20.0918 7.86879C32.0282 3.94936 48.6129 1.5 67 1.5C85.3871 1.5 101.972 3.94936 113.908 7.86879C119.885 9.83117 124.612 12.1352 127.815 14.6215C131.037 17.1229 132.5 19.6289 132.5 22Z" stroke="#63FF8F" stroke-width="3"/>
</g>
</svg>
