<svg width="160" height="43" viewBox="0 0 160 43" fill="none" xmlns="http://www.w3.org/2000/svg">
<g style="mix-blend-mode:multiply">
<path d="M1.5 21.5C1.5 23.6636 3.15291 26.1003 7.09123 28.6027C10.9573 31.0592 16.6512 33.3274 23.8208 35.2542C38.1381 39.102 58.0011 41.5 80 41.5C101.999 41.5 121.862 39.102 136.179 35.2542C143.349 33.3274 149.043 31.0592 152.909 28.6027C156.847 26.1003 158.5 23.6636 158.5 21.5C158.5 19.3364 156.847 16.8997 152.909 14.3973C149.043 11.9408 143.349 9.67263 136.179 7.7458C121.862 3.89801 101.999 1.5 80 1.5C58.0011 1.5 38.1381 3.89801 23.8208 7.7458C16.6512 9.67263 10.9573 11.9408 7.09123 14.3973C3.15291 16.8997 1.5 19.3364 1.5 21.5Z" stroke="#63FF8F" stroke-width="3"/>
</g>
</svg>
